<?xml version="1.0" encoding="UTF-8"?>
<svg id="Layer_2" data-name="Layer 2" xmlns="http://www.w3.org/2000/svg" viewBox="0 0 630.11 192.38">
  <defs>
    <style>
      .cls-1 {
        fill: #ffa310;
        stroke-width: 0px;
      }

      .cls-2 {
        fill: #2a64d8;
        font-family: Oughter, Oughter;
        font-size: 165.85px;
      }
    </style>
  </defs>
  <g id="Layer_1-2" data-name="Layer 1">
    <text class="cls-2" transform="translate(0 140.97)"><tspan x="0" y="0">enly</tspan></text>
    <g>
      <circle class="cls-1" cx="474.32" cy="53.07" r="15.8" transform="translate(243.77 470.97) rotate(-67.5)"/>
      <path class="cls-1" d="m614.31,73.42c-8.73,0-15.8,7.07-15.8,15.8h0c0,8.73,7.07,15.8,15.8,15.8s15.8-7.07,15.8-15.8h0c0-8.73-7.07-15.8-15.8-15.8Z"/>
      <path class="cls-1" d="m510.03,68.87h23.85c8.73,0,15.8-7.07,15.8-15.8s-7.07-15.8-15.8-15.8h-23.85c-8.73,0-15.8,7.07-15.8,15.8s7.07,15.8,15.8,15.8Z"/>
      <rect class="cls-1" x="458.52" y="73.42" width="135.39" height="31.6" rx="15.8" ry="15.8"/>
      <rect class="cls-1" x="458.52" y="109.57" width="68.44" height="31.6" rx="15.8" ry="15.8"/>
    </g>
  </g>
</svg>